PathFileType	4	(X/Y/Z)	C:\Users\°ÂÌØÂü\Desktop\20210112\bx_y_5_502-Unnamed.trc
DataRate	CameraRate	NumFrames	NumMarkers	Units	OrigDataRate	OrigDataStartFrame	OrigNumFrames
50.00	50.00	       6	0	mm	50.00	1	       447
Frame#	Time	
		

1	0.000	-661.15979	295.14633	1539.78955	-611.56262	-4.05658	1047.80957				-606.99097	-1.50773	802.87164	-653.78442	282.85416	873.81012	-600.91644	214.56416	820.93018	-704.77332	275.94528	745.71619	-737.19318	252.89268	636.89197	-704.34399	144.03778	573.45703				-740.09131	247.66296	574.46741	-781.68109	256.75546	501.49976	-686.77844	205.81775	533.19635	-716.87830	79.68362	216.34135	-712.38464	153.00275	216.66344	-771.91302	222.86263	204.47723	-882.55206	296.03354	144.56734	-674.16327	56.87412	156.24365	-675.12317	172.48363	157.64290	-594.64929	224.01250	173.91335	-666.94641	299.42166	159.01372	-629.63171	307.63327	161.31912	-561.41614	263.01688	165.22237	-528.08600	304.15735	146.47820	-577.19330	138.21820	1846.50891				-517.48053	-72.90015	142.87605	-560.79132	-43.44387	162.94714	-602.37048	19.51722	165.17159	-639.21356	-61.06946	1561.94958	-807.83246	102.81573	1048.64038	-794.05713	57.47385	175.38635	-796.63721	172.35944	183.73776	-776.28876	-33.22335	486.92459	-664.98572	-66.56380	163.54070	-766.89404	-3.76893	205.96777	-875.64880	-79.04969	141.18465	-718.28906	-24.18928	613.49188	-624.19470	-78.05087	160.13737	-665.26801	-65.61469	855.97546	-701.55267	-47.49627	704.12988	-731.17401	-22.07094	566.70770	-574.55640	110.98508	1429.57080	-598.41766	220.74982	1063.25525	-681.00879	22.19622	521.10132	
2	0.020	-657.30505	295.24307	1540.07483	-613.47870	-4.23947	1047.52527	-709.34729	83.82529	574.79089	-609.35767	-1.42978	802.73773	-656.35437	282.47577	873.44006	-603.72888	214.84636	820.95715	-706.76129	276.18207	746.16925	-738.70734	252.87517	636.86670	-705.32275	144.30586	573.43256				-741.77747	247.20309	574.34412	-782.70172	257.08337	501.24210	-688.53326	205.84621	533.00983	-716.97626	79.62365	216.46690	-712.54883	153.13234	216.68137	-772.01532	222.94450	204.29745	-882.62518	296.03879	144.44261	-674.16327	56.87412	156.24365	-674.80450	172.34851	157.83540	-594.75275	224.09758	174.30147	-666.95319	299.63910	159.24118	-629.56586	307.54214	161.37218	-561.33990	262.91513	165.18123	-528.07397	304.01920	146.39075	-569.91241	138.05443	1845.20642				-517.37762	-72.71612	143.08081	-560.83319	-43.54629	163.06287	-602.21564	19.55358	165.40843	-634.92200	-61.08929	1561.34778	-809.96826	102.77553	1049.27551	-794.13959	57.32536	175.28107	-796.76855	172.28357	183.48433	-777.60199	-33.19845	486.45386	-665.07721	-66.50385	163.51474	-766.81573	-3.82968	205.98430	-875.99298	-78.87768	141.19183	-719.64056	-24.12772	613.13806	-624.20935	-77.79133	159.92265	-667.57123	-65.47246	856.12244	-703.58051	-48.09074	704.22375	-732.23700	-22.46272	567.01709	-572.29517	111.13579	1427.93909	-600.66443	220.64322	1063.26355	-682.02454	21.60564	521.46313	
3	0.040	-652.70966	294.90402	1539.77563	-615.88422	-4.21316	1047.02332	-710.74475	83.28307	574.61914	-612.03564	-1.81600	803.04968	-659.24854	282.87946	874.25916	-606.32758	214.46764	821.66040	-709.18982	276.15652	746.06915	-740.84424	252.73383	636.27173	-705.98840	144.77811	573.04736				-743.63000	247.36368	574.46021	-784.40845	257.03247	501.15820	-689.77850	205.96550	533.70673	-716.97626	79.62365	216.46690	-712.45197	153.18350	216.87401	-771.94128	222.97771	204.10213	-882.66003	296.11053	144.51537	-674.29407	56.84702	156.32726	-675.23822	172.30600	157.64368	-594.79962	224.20915	174.01733	-666.89197	299.60284	159.16083	-629.63171	307.63327	161.31912	-561.41412	262.91855	165.17879	-528.08600	304.15735	146.47820	-561.08307	137.68381	1843.41541				-517.89948	-73.24528	142.33551	-561.12628	-43.29358	162.59552	-602.41083	19.68074	165.42941	-630.14398	-61.17557	1560.48999	-812.69342	102.63641	1049.94043	-794.25018	57.48792	175.32881	-796.56421	172.85875	183.01459	-778.30170	-33.43826	486.62051	-665.12054	-66.58484	163.53848	-766.88123	-3.79347	205.87976	-875.93359	-78.96604	141.13327	-721.57642	-24.49714	613.37048	-624.19916	-77.77413	159.81804	-670.55969	-65.83887	855.94904	-706.40112	-47.11033	704.13556	-733.77258	-22.24343	566.79291	-569.50922	111.18301	1426.21631	-603.85852	220.68925	1062.75354	-683.33478	21.56787	521.90869	
4	0.060	-648.31683	294.80597	1538.77112	-619.57617	-4.09589	1047.03149	-712.39642	82.96546	574.27258	-615.07031	-1.95494	803.09662	-662.97650	282.44012	873.99609	-609.61938	214.12405	822.20819	-712.15851	276.98819	745.92706	-742.81274	252.94397	636.51465	-708.04565	144.41522	572.53693				-745.19507	247.62744	574.47821	-785.70892	256.93561	500.73236	-691.47601	205.72351	533.39093	-717.37549	79.45122	216.30240	-712.82275	153.34549	217.30301	-772.20776	223.12311	204.14032	-882.48291	295.99615	144.56113	-674.26331	56.83086	156.54643	-674.97504	172.78149	157.80388	-594.98523	224.12601	174.17995	-666.89197	299.60284	159.16083	-629.63171	307.63327	161.31912	-561.57208	263.00452	165.41759	-528.08600	304.15735	146.47820	-551.58820	137.21248	1841.36475				-517.70270	-72.98466	142.61838	-561.12518	-43.56469	162.74959	-601.85144	19.16177	165.75096	-624.64221	-61.12466	1559.32153	-816.14447	102.49146	1051.17517	-794.21051	57.28667	175.02054	-796.70502	172.86562	182.96956	-780.01062	-33.59877	486.22412	-665.17291	-66.60857	163.46866	-767.56238	-3.66004	205.44133	-876.13330	-78.92915	141.07085	-723.80255	-24.54705	613.45734	-624.12695	-77.82557	159.84735	-674.33636	-65.63902	855.94080	-708.56055	-48.77667	704.32471	-735.11163	-22.78578	566.72565	-567.27917	110.96709	1424.27368				-684.71277	21.54285	521.85687	
5	0.080	-643.04211	294.84894	1538.40881				-713.37817	82.82685	574.08246	-618.01477	-2.38494	803.22375	-666.51605	282.43958	874.21014	-612.82715	213.52727	822.17145	-715.15131	277.85272	745.78503	-744.80603	253.01054	636.30432	-710.10626	143.87988	573.29126				-747.19312	247.38849	573.70239	-787.37885	257.22079	500.57837	-693.24988	205.64458	533.41351	-717.64618	79.22430	216.57643	-713.07611	153.52600	217.35603	-772.42755	223.24635	204.10982	-882.56165	296.02393	144.54869	-674.56415	56.58785	156.98059	-675.46594	172.73972	157.57832	-595.17413	224.36516	174.35928	-666.84052	299.72925	159.29507	-629.59027	307.71408	161.29091	-561.61029	262.96323	165.26443	-528.16150	304.17200	146.42805	-541.83783	136.78093	1838.99609				-517.82715	-72.87961	142.35971	-561.12518	-43.56469	162.74959	-601.93762	18.94658	165.96523	-619.24457	-61.08608	1558.10156	-819.11938	102.08186	1052.43530	-794.41046	57.09872	174.93648	-796.70270	172.79361	182.90004	-781.07043	-33.66325	486.47952	-665.23932	-66.62000	163.35312	-767.65027	-3.66443	205.30626	-875.64880	-79.04969	141.18465	-725.87427	-24.75666	613.27960	-624.02393	-77.96867	159.99693	-677.55133	-65.40797	856.03088	-711.45050	-49.02859	704.84943	-737.29596	-22.92259	566.73871	-564.05945	111.18312	1422.22668				-686.27832	21.00122	522.08459	
6	0.100	-637.46356	294.96381	1537.28430				-714.40826	82.48481	573.93805	-621.37744	-2.96209	803.58325	-669.90527	282.97119	874.63623	-616.50446	213.55028	822.36316	-718.30554	277.27322	745.42657	-747.32764	253.14903	636.06866	-712.97607	144.49690	572.67224				-749.58154	247.27113	574.02130	-789.21600	257.08960	499.97900	-694.75275	205.80669	533.81488	-717.88580	78.94673	216.41476	-713.11981	153.56134	217.50011	-772.55988	223.21539	203.83958	-882.66003	296.13315	144.60139	-674.61078	56.72242	157.22008	-675.13177	172.98479	157.70276	-595.20313	224.41119	174.25237	-666.84052	299.72925	159.29507	-629.59027	307.71408	161.29091	-561.64386	263.07428	165.26643	-528.12634	304.18494	146.33830	-531.57465	136.27373	1836.26611				-517.77740	-73.08487	142.64369	-560.81982	-43.63258	162.48866	-602.15033	19.05952	166.01579	-613.15240	-61.35903	1556.50220	-822.45068	101.70943	1053.71277	-793.93707	56.78342	174.57254	-796.78131	172.89299	183.02197	-782.60681	-33.53263	485.82504	-665.09607	-66.79290	163.35828	-767.97217	-3.88402	205.41620	-875.64880	-79.04969	141.18465	-727.88739	-25.38516	613.67749	-624.31836	-77.78782	160.05157	-681.32593	-66.09721	856.08344	-714.52399	-48.85223	704.13593	-739.01678	-22.75662	566.45801	-560.91241	110.59443	1419.69336				-687.44635	20.78412	522.21844	
